<mxfile host="app.diagrams.net" modified="2020-03-22T11:49:08.924Z" agent="Mozilla/5.0 (X11; Linux x86_64) AppleWebKit/537.36 (KHTML, like Gecko) Chrome/80.0.3987.132 Safari/537.36" etag="XFZTfFZosmG6vQEIWSMA" version="12.8.8" type="github" pages="4">
  <diagram id="FabhQlQvctjSXVE3QbOY" name="DriverScorer_highLevel">
    <mxGraphModel dx="1355" dy="725" grid="1" gridSize="10" guides="1" tooltips="1" connect="1" arrows="1" fold="1" page="1" pageScale="1" pageWidth="850" pageHeight="1100" math="0" shadow="0">
      <root>
        <mxCell id="0" />
        <mxCell id="1" parent="0" />
        <mxCell id="TJeZ6az1pv_29v0z2Q-o-9" style="edgeStyle=orthogonalEdgeStyle;rounded=0;orthogonalLoop=1;jettySize=auto;html=1;" parent="1" source="TJeZ6az1pv_29v0z2Q-o-1" target="TJeZ6az1pv_29v0z2Q-o-8" edge="1">
          <mxGeometry relative="1" as="geometry" />
        </mxCell>
        <mxCell id="TJeZ6az1pv_29v0z2Q-o-1" value="DriverScorer" style="rounded=1;whiteSpace=wrap;html=1;fillColor=#f8cecc;strokeColor=#b85450;" parent="1" vertex="1">
          <mxGeometry x="365" y="280" width="120" height="60" as="geometry" />
        </mxCell>
        <mxCell id="TJeZ6az1pv_29v0z2Q-o-3" style="edgeStyle=orthogonalEdgeStyle;rounded=0;orthogonalLoop=1;jettySize=auto;html=1;startArrow=classic;startFill=1;" parent="1" source="TJeZ6az1pv_29v0z2Q-o-2" target="TJeZ6az1pv_29v0z2Q-o-1" edge="1">
          <mxGeometry relative="1" as="geometry" />
        </mxCell>
        <mxCell id="TJeZ6az1pv_29v0z2Q-o-2" value="GUI" style="rounded=1;whiteSpace=wrap;html=1;fillColor=#f5f5f5;strokeColor=#666666;fontColor=#333333;" parent="1" vertex="1">
          <mxGeometry x="365" y="110" width="120" height="60" as="geometry" />
        </mxCell>
        <mxCell id="TJeZ6az1pv_29v0z2Q-o-5" style="edgeStyle=orthogonalEdgeStyle;rounded=0;orthogonalLoop=1;jettySize=auto;html=1;" parent="1" source="TJeZ6az1pv_29v0z2Q-o-4" target="TJeZ6az1pv_29v0z2Q-o-1" edge="1">
          <mxGeometry relative="1" as="geometry" />
        </mxCell>
        <mxCell id="TJeZ6az1pv_29v0z2Q-o-4" value="Imu Sensor" style="rounded=1;whiteSpace=wrap;html=1;fillColor=#60a917;strokeColor=#2D7600;fontColor=#ffffff;" parent="1" vertex="1">
          <mxGeometry x="160" y="280" width="120" height="60" as="geometry" />
        </mxCell>
        <mxCell id="TJeZ6az1pv_29v0z2Q-o-7" style="edgeStyle=orthogonalEdgeStyle;rounded=0;orthogonalLoop=1;jettySize=auto;html=1;" parent="1" source="TJeZ6az1pv_29v0z2Q-o-6" target="TJeZ6az1pv_29v0z2Q-o-1" edge="1">
          <mxGeometry relative="1" as="geometry" />
        </mxCell>
        <mxCell id="TJeZ6az1pv_29v0z2Q-o-6" value="Logger" style="rounded=1;whiteSpace=wrap;html=1;fillColor=#e3c800;strokeColor=#B09500;fontColor=#ffffff;" parent="1" vertex="1">
          <mxGeometry x="570" y="280" width="120" height="60" as="geometry" />
        </mxCell>
        <mxCell id="TJeZ6az1pv_29v0z2Q-o-8" value="Labeled data" style="shape=cylinder;whiteSpace=wrap;html=1;boundedLbl=1;backgroundOutline=1;fillColor=#f0a30a;strokeColor=#BD7000;fontColor=#ffffff;" parent="1" vertex="1">
          <mxGeometry x="395" y="460" width="60" height="80" as="geometry" />
        </mxCell>
      </root>
    </mxGraphModel>
  </diagram>
  <diagram id="0RBjYaoqF_slRjXKyxi_" name="DriverScorer low_level">
    <mxGraphModel dx="1355" dy="725" grid="1" gridSize="10" guides="1" tooltips="1" connect="1" arrows="1" fold="1" page="1" pageScale="1" pageWidth="850" pageHeight="1100" math="0" shadow="0">
      <root>
        <mxCell id="gDPuIuiOImnLetf9CngF-0" />
        <mxCell id="gDPuIuiOImnLetf9CngF-1" parent="gDPuIuiOImnLetf9CngF-0" />
        <mxCell id="gDPuIuiOImnLetf9CngF-30" value="" style="edgeStyle=orthogonalEdgeStyle;rounded=0;orthogonalLoop=1;jettySize=auto;html=1;gradientColor=#ffa500;fillColor=#ffcd28;strokeColor=#d79b00;" parent="gDPuIuiOImnLetf9CngF-1" source="gDPuIuiOImnLetf9CngF-2" target="gDPuIuiOImnLetf9CngF-29" edge="1">
          <mxGeometry relative="1" as="geometry" />
        </mxCell>
        <mxCell id="gDPuIuiOImnLetf9CngF-34" value="" style="edgeStyle=orthogonalEdgeStyle;rounded=0;orthogonalLoop=1;jettySize=auto;html=1;gradientColor=#ffa500;fillColor=#ffcd28;strokeColor=#d79b00;" parent="gDPuIuiOImnLetf9CngF-1" source="gDPuIuiOImnLetf9CngF-2" target="gDPuIuiOImnLetf9CngF-10" edge="1">
          <mxGeometry relative="1" as="geometry" />
        </mxCell>
        <mxCell id="gDPuIuiOImnLetf9CngF-2" value="&lt;p style=&quot;font-family: &amp;#34;dejavu sans mono&amp;#34;&quot;&gt;&lt;font style=&quot;line-height: 60% ; font-size: 15px&quot; color=&quot;#ff00ff&quot;&gt;data = self._sensor.get_data()&lt;/font&gt;&lt;/p&gt;" style="rounded=1;whiteSpace=wrap;html=1;align=left;fillColor=#b0e3e6;strokeColor=#0e8088;" parent="gDPuIuiOImnLetf9CngF-1" vertex="1">
          <mxGeometry x="236.5" y="150" width="367" height="80" as="geometry" />
        </mxCell>
        <mxCell id="gDPuIuiOImnLetf9CngF-29" value="&lt;p style=&quot;font-family: &amp;#34;dejavu sans mono&amp;#34;&quot;&gt;&lt;font style=&quot;line-height: 60% ; font-size: 15px&quot; color=&quot;#ff00ff&quot;&gt;self._record_data_to_disk(data,label)&lt;/font&gt;&lt;/p&gt;" style="rounded=1;whiteSpace=wrap;html=1;align=left;fillColor=#d0cee2;strokeColor=#56517e;" parent="gDPuIuiOImnLetf9CngF-1" vertex="1">
          <mxGeometry x="689" y="150" width="367" height="80" as="geometry" />
        </mxCell>
        <mxCell id="gDPuIuiOImnLetf9CngF-24" value="" style="edgeStyle=orthogonalEdgeStyle;rounded=0;orthogonalLoop=1;jettySize=auto;html=1;gradientColor=#ffa500;fillColor=#ffcd28;strokeColor=#d79b00;" parent="gDPuIuiOImnLetf9CngF-1" source="gDPuIuiOImnLetf9CngF-6" target="gDPuIuiOImnLetf9CngF-23" edge="1">
          <mxGeometry relative="1" as="geometry" />
        </mxCell>
        <mxCell id="gDPuIuiOImnLetf9CngF-6" value="&lt;pre&gt;&lt;font color=&quot;#a9b7c6&quot; face=&quot;DejaVu Sans Mono&quot; style=&quot;background-color: rgb(43 , 43 , 43)&quot;&gt;&lt;span style=&quot;font-size: 11.3pt&quot;&gt;&lt;br&gt;&lt;/span&gt;&lt;/font&gt;&lt;/pre&gt;" style="rounded=1;whiteSpace=wrap;html=1;align=left;fillColor=#fad7ac;strokeColor=#b46504;" parent="gDPuIuiOImnLetf9CngF-1" vertex="1">
          <mxGeometry x="60" y="310" width="720" height="520" as="geometry" />
        </mxCell>
        <mxCell id="gDPuIuiOImnLetf9CngF-3" value="&lt;h1&gt;Driving scorer pipeline&lt;/h1&gt;" style="text;html=1;align=center;verticalAlign=middle;resizable=0;points=[];autosize=1;fillColor=#76608a;strokeColor=#432D57;fontColor=#ffffff;rounded=1;glass=0;shadow=1;comic=1;" parent="gDPuIuiOImnLetf9CngF-1" vertex="1">
          <mxGeometry x="285" y="58" width="280" height="50" as="geometry" />
        </mxCell>
        <mxCell id="gDPuIuiOImnLetf9CngF-4" value="" style="endArrow=classic;html=1;entryX=0;entryY=0.5;entryDx=0;entryDy=0;" parent="gDPuIuiOImnLetf9CngF-1" target="gDPuIuiOImnLetf9CngF-2" edge="1">
          <mxGeometry width="50" height="50" relative="1" as="geometry">
            <mxPoint x="160" y="190" as="sourcePoint" />
            <mxPoint x="220" y="170" as="targetPoint" />
          </mxGeometry>
        </mxCell>
        <mxCell id="gDPuIuiOImnLetf9CngF-5" value="Sensor measurments" style="text;html=1;align=center;verticalAlign=middle;resizable=0;points=[];autosize=1;" parent="gDPuIuiOImnLetf9CngF-1" vertex="1">
          <mxGeometry x="20" y="180" width="130" height="20" as="geometry" />
        </mxCell>
        <mxCell id="gDPuIuiOImnLetf9CngF-8" value="&lt;font style=&quot;font-size: 15px&quot; color=&quot;#ff00ff&quot;&gt;data&lt;/font&gt;" style="text;html=1;align=center;verticalAlign=middle;resizable=0;points=[];autosize=1;" parent="gDPuIuiOImnLetf9CngF-1" vertex="1">
          <mxGeometry x="405" y="260" width="40" height="20" as="geometry" />
        </mxCell>
        <mxCell id="gDPuIuiOImnLetf9CngF-10" value="&lt;pre style=&quot;text-align: left&quot;&gt;&lt;font face=&quot;DejaVu Sans Mono&quot; color=&quot;#ff00ff&quot;&gt;&lt;span style=&quot;font-size: 15.0667px&quot;&gt;self._score_drive(data)&lt;/span&gt;&lt;/font&gt;&lt;/pre&gt;" style="text;html=1;strokeColor=none;fillColor=none;align=center;verticalAlign=middle;whiteSpace=wrap;rounded=0;shadow=1;glass=0;comic=1;" parent="gDPuIuiOImnLetf9CngF-1" vertex="1">
          <mxGeometry x="330" y="310" width="180" height="20" as="geometry" />
        </mxCell>
        <mxCell id="gDPuIuiOImnLetf9CngF-12" value="&lt;pre style=&quot;font-family: &amp;#34;dejavu sans mono&amp;#34; ; font-size: 15px&quot;&gt;&lt;span style=&quot;background-color: rgb(255 , 255 , 255)&quot;&gt;&lt;font color=&quot;#ff00ff&quot;&gt;self._update_min_and_max(data)&lt;/font&gt;&lt;/span&gt;&lt;/pre&gt;" style="rounded=1;whiteSpace=wrap;html=1;shadow=1;glass=0;comic=1;" parent="gDPuIuiOImnLetf9CngF-1" vertex="1">
          <mxGeometry x="277.5" y="350" width="285" height="60" as="geometry" />
        </mxCell>
        <mxCell id="gDPuIuiOImnLetf9CngF-16" value="" style="edgeStyle=orthogonalEdgeStyle;rounded=0;orthogonalLoop=1;jettySize=auto;html=1;" parent="gDPuIuiOImnLetf9CngF-1" source="gDPuIuiOImnLetf9CngF-13" target="gDPuIuiOImnLetf9CngF-15" edge="1">
          <mxGeometry relative="1" as="geometry" />
        </mxCell>
        <mxCell id="gDPuIuiOImnLetf9CngF-13" value="&lt;pre&gt;&lt;pre&gt;&lt;font face=&quot;DejaVu Sans Mono&quot;&gt;&lt;span style=&quot;font-size: 15.0667px ; background-color: rgb(255 , 255 , 255)&quot;&gt;&lt;font color=&quot;#ff00ff&quot;&gt; self._normalize_current_data(data)&lt;/font&gt;&lt;/span&gt;&lt;span style=&quot;background-color: rgb(43 , 43 , 43) ; color: rgb(169 , 183 , 198) ; font-size: 11.3pt&quot;&gt;&lt;br&gt;&lt;/span&gt;&lt;/font&gt;&lt;/pre&gt;&lt;/pre&gt;" style="rounded=1;whiteSpace=wrap;html=1;shadow=1;glass=0;comic=1;align=left;" parent="gDPuIuiOImnLetf9CngF-1" vertex="1">
          <mxGeometry x="255" y="440" width="340" height="60" as="geometry" />
        </mxCell>
        <mxCell id="gDPuIuiOImnLetf9CngF-20" value="" style="edgeStyle=orthogonalEdgeStyle;rounded=0;orthogonalLoop=1;jettySize=auto;html=1;" parent="gDPuIuiOImnLetf9CngF-1" source="gDPuIuiOImnLetf9CngF-15" target="gDPuIuiOImnLetf9CngF-19" edge="1">
          <mxGeometry relative="1" as="geometry" />
        </mxCell>
        <mxCell id="gDPuIuiOImnLetf9CngF-15" value="&lt;pre&gt;&lt;pre&gt;&lt;font face=&quot;DejaVu Sans Mono&quot;&gt;&lt;font color=&quot;#ff00ff&quot;&gt;&lt;span style=&quot;font-size: 15.0667px ; background-color: rgb(255 , 255 , 255)&quot;&gt;self._get_norm_of_normalized_current_data(normalized_current_data)&lt;/span&gt;&lt;/font&gt;&lt;font color=&quot;#a9b7c6&quot; style=&quot;background-color: rgb(43 , 43 , 43)&quot;&gt;&lt;span style=&quot;font-size: 11.3pt&quot;&gt;&lt;br&gt;&lt;/span&gt;&lt;/font&gt;&lt;/font&gt;&lt;/pre&gt;&lt;/pre&gt;" style="rounded=1;whiteSpace=wrap;html=1;shadow=1;glass=0;comic=1;align=left;" parent="gDPuIuiOImnLetf9CngF-1" vertex="1">
          <mxGeometry x="118" y="540" width="615" height="60" as="geometry" />
        </mxCell>
        <mxCell id="gDPuIuiOImnLetf9CngF-19" value="&lt;pre&gt;&lt;pre&gt;&lt;font face=&quot;DejaVu Sans Mono&quot;&gt;&lt;font color=&quot;#ff00ff&quot;&gt;&lt;span style=&quot;font-size: 15.0667px ; background-color: rgb(255 , 255 , 255)&quot;&gt;self._update_scores_arr(&lt;/span&gt;&lt;/font&gt;&lt;/font&gt;&lt;font style=&quot;font-size: 15px&quot; color=&quot;#ff00ff&quot;&gt;current_normalized_datascore_between_0_to_1)&lt;/font&gt;&lt;/pre&gt;&lt;/pre&gt;" style="rounded=1;whiteSpace=wrap;html=1;shadow=1;glass=0;comic=1;align=left;" parent="gDPuIuiOImnLetf9CngF-1" vertex="1">
          <mxGeometry x="118" y="680" width="615" height="60" as="geometry" />
        </mxCell>
        <mxCell id="gDPuIuiOImnLetf9CngF-18" value="normalized_current_data" style="text;html=1;align=center;verticalAlign=middle;resizable=0;points=[];autosize=1;gradientColor=#FFFFFF;fillColor=none;strokeColor=#d79b00;rounded=1;comic=1;shadow=0;" parent="gDPuIuiOImnLetf9CngF-1" vertex="1">
          <mxGeometry x="350.5" y="510" width="150" height="20" as="geometry" />
        </mxCell>
        <mxCell id="gDPuIuiOImnLetf9CngF-22" value="current_normalized_datascore_between_0_to_1" style="text;html=1;align=center;verticalAlign=middle;resizable=0;points=[];autosize=1;gradientColor=#FFFFFF;fillColor=none;strokeColor=#d79b00;rounded=1;comic=1;shadow=0;" parent="gDPuIuiOImnLetf9CngF-1" vertex="1">
          <mxGeometry x="290" y="630" width="270" height="20" as="geometry" />
        </mxCell>
        <mxCell id="gDPuIuiOImnLetf9CngF-26" value="" style="group" parent="gDPuIuiOImnLetf9CngF-1" vertex="1" connectable="0">
          <mxGeometry x="171.5" y="890" width="497" height="130" as="geometry" />
        </mxCell>
        <mxCell id="gDPuIuiOImnLetf9CngF-23" value="&lt;pre&gt;&lt;font color=&quot;#a9b7c6&quot; face=&quot;DejaVu Sans Mono&quot; style=&quot;background-color: rgb(43 , 43 , 43)&quot;&gt;&lt;span style=&quot;font-size: 11.3pt&quot;&gt;&lt;br&gt;&lt;/span&gt;&lt;/font&gt;&lt;/pre&gt;" style="rounded=1;whiteSpace=wrap;html=1;align=left;gradientColor=#97d077;fillColor=#d5e8d4;strokeColor=#82b366;" parent="gDPuIuiOImnLetf9CngF-26" vertex="1">
          <mxGeometry width="497" height="130" as="geometry" />
        </mxCell>
        <mxCell id="gDPuIuiOImnLetf9CngF-25" value="&lt;pre style=&quot;font-family: &amp;#34;dejavu sans mono&amp;#34; ; font-size: 11.3pt&quot;&gt;&lt;font&gt;&lt;font color=&quot;#ff00ff&quot;&gt;def get_score_arr(self) -&amp;gt; np.array([]):&lt;br&gt;    with &lt;/font&gt;&lt;font color=&quot;#ff3333&quot;&gt;self._data_lock&lt;/font&gt;&lt;/font&gt;&lt;font color=&quot;#ff00ff&quot;&gt;: &lt;/font&gt;&lt;font color=&quot;#ea6b66&quot;&gt;# critical section&lt;/font&gt;&lt;font color=&quot;#ff00ff&quot;&gt;&lt;br&gt;        return self._driving_scores_arr&lt;/font&gt;&lt;/pre&gt;" style="text;html=1;strokeColor=none;fillColor=none;align=left;verticalAlign=middle;whiteSpace=wrap;rounded=0;shadow=0;glass=0;comic=1;" parent="gDPuIuiOImnLetf9CngF-26" vertex="1">
          <mxGeometry x="43" y="17.5" width="440" height="95" as="geometry" />
        </mxCell>
        <mxCell id="gDPuIuiOImnLetf9CngF-27" value="" style="endArrow=classic;html=1;" parent="gDPuIuiOImnLetf9CngF-1" source="gDPuIuiOImnLetf9CngF-23" edge="1">
          <mxGeometry width="50" height="50" relative="1" as="geometry">
            <mxPoint x="70" y="970" as="sourcePoint" />
            <mxPoint x="10" y="950" as="targetPoint" />
          </mxGeometry>
        </mxCell>
        <mxCell id="gDPuIuiOImnLetf9CngF-28" value="driving_scores_arr" style="text;html=1;align=center;verticalAlign=middle;resizable=0;points=[];autosize=1;" parent="gDPuIuiOImnLetf9CngF-1" vertex="1">
          <mxGeometry x="30" y="930" width="110" height="20" as="geometry" />
        </mxCell>
        <mxCell id="gDPuIuiOImnLetf9CngF-32" value="&lt;font style=&quot;font-size: 15px&quot; color=&quot;#ff00ff&quot;&gt;data&lt;/font&gt;" style="text;html=1;align=center;verticalAlign=middle;resizable=0;points=[];autosize=1;" parent="gDPuIuiOImnLetf9CngF-1" vertex="1">
          <mxGeometry x="630" y="190" width="40" height="20" as="geometry" />
        </mxCell>
      </root>
    </mxGraphModel>
  </diagram>
  <diagram name="Grading pipeline" id="4Da9OosHaWFgzqUpJcrh">
    <mxGraphModel dx="2205" dy="725" grid="1" gridSize="10" guides="1" tooltips="1" connect="1" arrows="1" fold="1" page="1" pageScale="1" pageWidth="850" pageHeight="1100" math="0" shadow="0">
      <root>
        <mxCell id="jMBi5ZesF6JEzoM__58t-0" />
        <mxCell id="jMBi5ZesF6JEzoM__58t-1" parent="jMBi5ZesF6JEzoM__58t-0" />
        <mxCell id="jMBi5ZesF6JEzoM__58t-2" value="" style="edgeStyle=orthogonalEdgeStyle;rounded=0;orthogonalLoop=1;jettySize=auto;html=1;gradientColor=#ffa500;fillColor=#ffcd28;strokeColor=#d79b00;entryX=0;entryY=0.5;entryDx=0;entryDy=0;" edge="1" parent="jMBi5ZesF6JEzoM__58t-1" source="jMBi5ZesF6JEzoM__58t-4" target="jMBi5ZesF6JEzoM__58t-30">
          <mxGeometry relative="1" as="geometry">
            <mxPoint x="689" y="190" as="targetPoint" />
          </mxGeometry>
        </mxCell>
        <mxCell id="jMBi5ZesF6JEzoM__58t-3" value="" style="edgeStyle=orthogonalEdgeStyle;rounded=0;orthogonalLoop=1;jettySize=auto;html=1;gradientColor=#ffa500;fillColor=#ffcd28;strokeColor=#d79b00;entryX=0.5;entryY=0;entryDx=0;entryDy=0;" edge="1" parent="jMBi5ZesF6JEzoM__58t-1" source="jMBi5ZesF6JEzoM__58t-4" target="jMBi5ZesF6JEzoM__58t-13">
          <mxGeometry relative="1" as="geometry">
            <mxPoint x="420" y="310" as="targetPoint" />
          </mxGeometry>
        </mxCell>
        <mxCell id="jMBi5ZesF6JEzoM__58t-29" value="" style="edgeStyle=orthogonalEdgeStyle;rounded=1;orthogonalLoop=1;jettySize=auto;html=1;startArrow=none;startFill=0;" edge="1" parent="jMBi5ZesF6JEzoM__58t-1" source="jMBi5ZesF6JEzoM__58t-28" target="jMBi5ZesF6JEzoM__58t-4">
          <mxGeometry relative="1" as="geometry" />
        </mxCell>
        <mxCell id="jMBi5ZesF6JEzoM__58t-4" value="&lt;p style=&quot;font-family: &amp;#34;dejavu sans mono&amp;#34;&quot;&gt;&lt;font color=&quot;#ff3399&quot;&gt;&lt;font style=&quot;line-height: 60% ; font-size: 15px&quot;&gt;sensor.&lt;/font&gt;&lt;span style=&quot;font-family: &amp;#34;dejavu sans mono&amp;#34; ; font-size: 11.3pt&quot;&gt;_process_data&lt;/span&gt;&lt;span style=&quot;font-size: 15px&quot;&gt;(user_label)&lt;/span&gt;&lt;/font&gt;&lt;/p&gt;" style="rounded=1;whiteSpace=wrap;html=1;align=center;fillColor=#b0e3e6;strokeColor=#0e8088;" vertex="1" parent="jMBi5ZesF6JEzoM__58t-1">
          <mxGeometry x="236.5" y="150" width="367" height="80" as="geometry" />
        </mxCell>
        <mxCell id="jMBi5ZesF6JEzoM__58t-28" value="&lt;p style=&quot;font-family: &amp;#34;dejavu sans mono&amp;#34;&quot;&gt;&lt;font style=&quot;line-height: 60% ; font-size: 15px&quot; color=&quot;#ff00ff&quot;&gt;Sensor measurements&lt;/font&gt;&lt;/p&gt;" style="rounded=1;whiteSpace=wrap;html=1;align=left;fillColor=#fff2cc;strokeColor=#d6b656;" vertex="1" parent="jMBi5ZesF6JEzoM__58t-1">
          <mxGeometry x="331.75" y="20" width="176.5" height="80" as="geometry" />
        </mxCell>
        <mxCell id="jMBi5ZesF6JEzoM__58t-6" value="" style="edgeStyle=orthogonalEdgeStyle;rounded=0;orthogonalLoop=1;jettySize=auto;html=1;gradientColor=#ffa500;fillColor=#ffcd28;strokeColor=#d79b00;" edge="1" parent="jMBi5ZesF6JEzoM__58t-1">
          <mxGeometry relative="1" as="geometry">
            <mxPoint x="442" y="1530" as="sourcePoint" />
            <mxPoint x="442" y="1590" as="targetPoint" />
          </mxGeometry>
        </mxCell>
        <mxCell id="jMBi5ZesF6JEzoM__58t-11" value="&lt;font style=&quot;font-size: 15px&quot; color=&quot;#ff00ff&quot;&gt;data&lt;/font&gt;" style="text;html=1;align=center;verticalAlign=middle;resizable=0;points=[];autosize=1;" vertex="1" parent="jMBi5ZesF6JEzoM__58t-1">
          <mxGeometry x="405" y="260" width="40" height="20" as="geometry" />
        </mxCell>
        <mxCell id="jMBi5ZesF6JEzoM__58t-32" value="" style="edgeStyle=orthogonalEdgeStyle;rounded=1;orthogonalLoop=1;jettySize=auto;html=1;startArrow=none;startFill=0;strokeColor=#D79B00;" edge="1" parent="jMBi5ZesF6JEzoM__58t-1" source="jMBi5ZesF6JEzoM__58t-13" target="jMBi5ZesF6JEzoM__58t-31">
          <mxGeometry relative="1" as="geometry" />
        </mxCell>
        <mxCell id="jMBi5ZesF6JEzoM__58t-36" value="" style="edgeStyle=orthogonalEdgeStyle;rounded=1;orthogonalLoop=1;jettySize=auto;html=1;startArrow=none;startFill=0;strokeColor=#D79B00;" edge="1" parent="jMBi5ZesF6JEzoM__58t-1" source="jMBi5ZesF6JEzoM__58t-13" target="jMBi5ZesF6JEzoM__58t-35">
          <mxGeometry relative="1" as="geometry" />
        </mxCell>
        <mxCell id="jMBi5ZesF6JEzoM__58t-13" value="&lt;pre style=&quot;font-family: &amp;#34;dejavu sans mono&amp;#34; ; font-size: 15px&quot;&gt;&lt;font color=&quot;#ff00ff&quot;&gt;&lt;span style=&quot;background-color: rgb(255 , 255 , 255)&quot;&gt;warm up time passed?&lt;/span&gt;&lt;/font&gt;&lt;/pre&gt;" style="rounded=1;whiteSpace=wrap;html=1;shadow=1;glass=0;comic=1;" vertex="1" parent="jMBi5ZesF6JEzoM__58t-1">
          <mxGeometry x="316.5" y="320" width="207" height="60" as="geometry" />
        </mxCell>
        <mxCell id="jMBi5ZesF6JEzoM__58t-41" value="" style="edgeStyle=orthogonalEdgeStyle;rounded=1;orthogonalLoop=1;jettySize=auto;html=1;startArrow=none;startFill=0;strokeColor=#D79B00;" edge="1" parent="jMBi5ZesF6JEzoM__58t-1" source="jMBi5ZesF6JEzoM__58t-35" target="jMBi5ZesF6JEzoM__58t-40">
          <mxGeometry relative="1" as="geometry" />
        </mxCell>
        <mxCell id="jMBi5ZesF6JEzoM__58t-35" value="&lt;pre style=&quot;font-family: &amp;#34;dejavu sans mono&amp;#34; ; font-size: 15px&quot;&gt;&lt;pre style=&quot;font-family: &amp;#34;dejavu sans mono&amp;#34; ; font-size: 11.3pt&quot;&gt;&lt;font color=&quot;#ff33ff&quot;&gt;_preprocess_data&lt;/font&gt;&lt;/pre&gt;&lt;/pre&gt;" style="rounded=1;whiteSpace=wrap;html=1;shadow=1;glass=0;comic=1;" vertex="1" parent="jMBi5ZesF6JEzoM__58t-1">
          <mxGeometry x="316.5" y="430" width="207" height="60" as="geometry" />
        </mxCell>
        <mxCell id="jMBi5ZesF6JEzoM__58t-45" value="" style="edgeStyle=orthogonalEdgeStyle;rounded=1;orthogonalLoop=1;jettySize=auto;html=1;startArrow=none;startFill=0;strokeColor=#D79B00;" edge="1" parent="jMBi5ZesF6JEzoM__58t-1" source="jMBi5ZesF6JEzoM__58t-40" target="jMBi5ZesF6JEzoM__58t-44">
          <mxGeometry relative="1" as="geometry" />
        </mxCell>
        <mxCell id="jMBi5ZesF6JEzoM__58t-40" value="&lt;pre style=&quot;font-family: &amp;#34;dejavu sans mono&amp;#34;&quot;&gt;&lt;pre style=&quot;font-family: &amp;#34;dejavu sans mono&amp;#34;&quot;&gt;&lt;pre style=&quot;font-size: 11.3pt ; font-family: &amp;#34;dejavu sans mono&amp;#34;&quot;&gt;&lt;font color=&quot;#ff00ff&quot;&gt;Shift data distribution to be 0-centered.&lt;/font&gt;&lt;/pre&gt;&lt;pre style=&quot;font-family: &amp;#34;dejavu sans mono&amp;#34;&quot;&gt;&lt;font style=&quot;font-size: 10px&quot;&gt;Using accumulated, calculate STD, and subtracted from new raw data&lt;/font&gt;&lt;font color=&quot;#ff00ff&quot; style=&quot;font-size: 11.3pt&quot;&gt;&lt;br&gt;&lt;/font&gt;&lt;/pre&gt;&lt;/pre&gt;&lt;/pre&gt;" style="rounded=1;whiteSpace=wrap;html=1;shadow=1;glass=0;comic=1;" vertex="1" parent="jMBi5ZesF6JEzoM__58t-1">
          <mxGeometry x="208.75" y="530" width="422.5" height="60" as="geometry" />
        </mxCell>
        <mxCell id="jMBi5ZesF6JEzoM__58t-47" value="" style="edgeStyle=orthogonalEdgeStyle;rounded=1;orthogonalLoop=1;jettySize=auto;html=1;startArrow=none;startFill=0;strokeColor=#D79B00;" edge="1" parent="jMBi5ZesF6JEzoM__58t-1" source="jMBi5ZesF6JEzoM__58t-44" target="jMBi5ZesF6JEzoM__58t-46">
          <mxGeometry relative="1" as="geometry" />
        </mxCell>
        <mxCell id="jMBi5ZesF6JEzoM__58t-44" value="&lt;pre&gt;&lt;pre&gt;&lt;pre style=&quot;font-family: &amp;#34;dejavu sans mono&amp;#34; ; font-size: 11.3pt&quot;&gt;&lt;font color=&quot;#ff00ff&quot;&gt;Normalize data&lt;/font&gt;&lt;/pre&gt;&lt;pre&gt;&lt;pre&gt;norm = (data - data.min) / (data.max - data.min)&lt;/pre&gt;&lt;/pre&gt;&lt;/pre&gt;&lt;/pre&gt;" style="rounded=1;whiteSpace=wrap;html=1;shadow=1;glass=0;comic=1;" vertex="1" parent="jMBi5ZesF6JEzoM__58t-1">
          <mxGeometry x="194.38" y="670" width="451.25" height="60" as="geometry" />
        </mxCell>
        <mxCell id="jMBi5ZesF6JEzoM__58t-49" value="" style="edgeStyle=orthogonalEdgeStyle;rounded=1;orthogonalLoop=1;jettySize=auto;html=1;startArrow=none;startFill=0;strokeColor=#D79B00;" edge="1" parent="jMBi5ZesF6JEzoM__58t-1" source="jMBi5ZesF6JEzoM__58t-46" target="jMBi5ZesF6JEzoM__58t-48">
          <mxGeometry relative="1" as="geometry" />
        </mxCell>
        <mxCell id="jMBi5ZesF6JEzoM__58t-46" value="&lt;pre&gt;&lt;pre&gt;&lt;pre style=&quot;font-family: &amp;#34;dejavu sans mono&amp;#34; ; font-size: 11.3pt&quot;&gt;&lt;font color=&quot;#ff00ff&quot;&gt;Smooth data&lt;/font&gt;&lt;/pre&gt;&lt;pre&gt;&lt;pre&gt;&lt;pre&gt;Using sliding window-mean.&lt;/pre&gt;&lt;/pre&gt;&lt;/pre&gt;&lt;/pre&gt;&lt;/pre&gt;" style="rounded=1;whiteSpace=wrap;html=1;shadow=1;glass=0;comic=1;" vertex="1" parent="jMBi5ZesF6JEzoM__58t-1">
          <mxGeometry x="194.38" y="810" width="451.25" height="60" as="geometry" />
        </mxCell>
        <mxCell id="jMBi5ZesF6JEzoM__58t-51" style="edgeStyle=orthogonalEdgeStyle;rounded=1;orthogonalLoop=1;jettySize=auto;html=1;entryX=0.5;entryY=0;entryDx=0;entryDy=0;startArrow=none;startFill=0;strokeColor=#D79B00;" edge="1" parent="jMBi5ZesF6JEzoM__58t-1" source="jMBi5ZesF6JEzoM__58t-48" target="jMBi5ZesF6JEzoM__58t-50">
          <mxGeometry relative="1" as="geometry" />
        </mxCell>
        <mxCell id="jMBi5ZesF6JEzoM__58t-48" value="&lt;pre&gt;&lt;pre&gt;&lt;pre style=&quot;font-family: &amp;#34;dejavu sans mono&amp;#34; ; font-size: 11.3pt&quot;&gt;&lt;font color=&quot;#ff00ff&quot;&gt;&lt;font face=&quot;dejavu sans mono&quot; style=&quot;font-size: 12px ; white-space: normal&quot;&gt;&lt;span style=&quot;font-size: 15px ; white-space: pre&quot;&gt;accumulate&lt;/span&gt;&lt;/font&gt; pre-processed data&lt;/font&gt;&lt;/pre&gt;&lt;/pre&gt;&lt;/pre&gt;" style="rounded=1;whiteSpace=wrap;html=1;shadow=1;glass=0;comic=1;" vertex="1" parent="jMBi5ZesF6JEzoM__58t-1">
          <mxGeometry x="194.38" y="950" width="451.25" height="60" as="geometry" />
        </mxCell>
        <mxCell id="jMBi5ZesF6JEzoM__58t-34" style="edgeStyle=orthogonalEdgeStyle;rounded=1;orthogonalLoop=1;jettySize=auto;html=1;entryX=0.25;entryY=0;entryDx=0;entryDy=0;startArrow=none;startFill=0;strokeColor=#D79B00;" edge="1" parent="jMBi5ZesF6JEzoM__58t-1" source="jMBi5ZesF6JEzoM__58t-31" target="jMBi5ZesF6JEzoM__58t-13">
          <mxGeometry relative="1" as="geometry">
            <Array as="points">
              <mxPoint x="158" y="290" />
              <mxPoint x="368" y="290" />
            </Array>
          </mxGeometry>
        </mxCell>
        <mxCell id="jMBi5ZesF6JEzoM__58t-42" style="edgeStyle=orthogonalEdgeStyle;rounded=1;orthogonalLoop=1;jettySize=auto;html=1;entryX=0;entryY=0.5;entryDx=0;entryDy=0;startArrow=none;startFill=0;strokeColor=#D79B00;" edge="1" parent="jMBi5ZesF6JEzoM__58t-1" source="jMBi5ZesF6JEzoM__58t-31" target="jMBi5ZesF6JEzoM__58t-40">
          <mxGeometry relative="1" as="geometry" />
        </mxCell>
        <mxCell id="jMBi5ZesF6JEzoM__58t-31" value="&lt;font color=&quot;#ff00ff&quot; face=&quot;dejavu sans mono&quot;&gt;&lt;span style=&quot;font-size: 15px ; white-space: pre&quot;&gt;accumulate&lt;/span&gt;&lt;/font&gt;&lt;pre style=&quot;font-family: &amp;#34;dejavu sans mono&amp;#34; ; font-size: 15px&quot;&gt;&lt;font color=&quot;#ff00ff&quot;&gt;&lt;span style=&quot;background-color: rgb(255 , 255 , 255)&quot;&gt; raw data&lt;/span&gt;&lt;/font&gt;&lt;/pre&gt;" style="rounded=1;whiteSpace=wrap;html=1;shadow=1;glass=0;comic=1;" vertex="1" parent="jMBi5ZesF6JEzoM__58t-1">
          <mxGeometry x="80" y="310" width="156.5" height="80" as="geometry" />
        </mxCell>
        <mxCell id="jMBi5ZesF6JEzoM__58t-16" value="" style="edgeStyle=orthogonalEdgeStyle;rounded=0;orthogonalLoop=1;jettySize=auto;html=1;" edge="1" parent="jMBi5ZesF6JEzoM__58t-1" target="jMBi5ZesF6JEzoM__58t-18">
          <mxGeometry relative="1" as="geometry">
            <mxPoint x="447.5" y="1390" as="sourcePoint" />
          </mxGeometry>
        </mxCell>
        <mxCell id="jMBi5ZesF6JEzoM__58t-18" value="&lt;pre&gt;&lt;pre&gt;&lt;font face=&quot;DejaVu Sans Mono&quot;&gt;&lt;font color=&quot;#ff00ff&quot;&gt;&lt;span style=&quot;font-size: 15.0667px ; background-color: rgb(255 , 255 , 255)&quot;&gt;self._update_scores_arr(&lt;/span&gt;&lt;/font&gt;&lt;/font&gt;&lt;font style=&quot;font-size: 15px&quot; color=&quot;#ff00ff&quot;&gt;current_normalized_datascore_between_0_to_1)&lt;/font&gt;&lt;/pre&gt;&lt;/pre&gt;" style="rounded=1;whiteSpace=wrap;html=1;shadow=1;glass=0;comic=1;align=left;" vertex="1" parent="jMBi5ZesF6JEzoM__58t-1">
          <mxGeometry x="140" y="1470" width="615" height="60" as="geometry" />
        </mxCell>
        <mxCell id="jMBi5ZesF6JEzoM__58t-20" value="current_normalized_datascore_between_0_to_1" style="text;html=1;align=center;verticalAlign=middle;resizable=0;points=[];autosize=1;gradientColor=#FFFFFF;fillColor=none;strokeColor=#d79b00;rounded=1;comic=1;shadow=0;" vertex="1" parent="jMBi5ZesF6JEzoM__58t-1">
          <mxGeometry x="312" y="1420" width="270" height="20" as="geometry" />
        </mxCell>
        <mxCell id="jMBi5ZesF6JEzoM__58t-21" value="" style="group" vertex="1" connectable="0" parent="jMBi5ZesF6JEzoM__58t-1">
          <mxGeometry x="193.5" y="1490" width="497" height="130" as="geometry" />
        </mxCell>
        <mxCell id="jMBi5ZesF6JEzoM__58t-22" value="&lt;pre&gt;&lt;font color=&quot;#a9b7c6&quot; face=&quot;DejaVu Sans Mono&quot; style=&quot;background-color: rgb(43 , 43 , 43)&quot;&gt;&lt;span style=&quot;font-size: 11.3pt&quot;&gt;&lt;br&gt;&lt;/span&gt;&lt;/font&gt;&lt;/pre&gt;" style="rounded=1;whiteSpace=wrap;html=1;align=left;gradientColor=#97d077;fillColor=#d5e8d4;strokeColor=#82b366;" vertex="1" parent="jMBi5ZesF6JEzoM__58t-21">
          <mxGeometry width="497" height="130" as="geometry" />
        </mxCell>
        <mxCell id="jMBi5ZesF6JEzoM__58t-23" value="&lt;pre style=&quot;font-family: &amp;#34;dejavu sans mono&amp;#34; ; font-size: 11.3pt&quot;&gt;&lt;font&gt;&lt;font color=&quot;#ff00ff&quot;&gt;def get_score_arr(self) -&amp;gt; np.array([]):&lt;br&gt;    with &lt;/font&gt;&lt;font color=&quot;#ff3333&quot;&gt;self._data_lock&lt;/font&gt;&lt;/font&gt;&lt;font color=&quot;#ff00ff&quot;&gt;: &lt;/font&gt;&lt;font color=&quot;#ea6b66&quot;&gt;# critical section&lt;/font&gt;&lt;font color=&quot;#ff00ff&quot;&gt;&lt;br&gt;        return self._driving_scores_arr&lt;/font&gt;&lt;/pre&gt;" style="text;html=1;strokeColor=none;fillColor=none;align=left;verticalAlign=middle;whiteSpace=wrap;rounded=0;shadow=0;glass=0;comic=1;" vertex="1" parent="jMBi5ZesF6JEzoM__58t-21">
          <mxGeometry x="43" y="17.5" width="440" height="95" as="geometry" />
        </mxCell>
        <mxCell id="jMBi5ZesF6JEzoM__58t-25" value="driving_scores_arr" style="text;html=1;align=center;verticalAlign=middle;resizable=0;points=[];autosize=1;" vertex="1" parent="jMBi5ZesF6JEzoM__58t-1">
          <mxGeometry x="180" y="1430" width="110" height="20" as="geometry" />
        </mxCell>
        <mxCell id="jMBi5ZesF6JEzoM__58t-26" value="&lt;font style=&quot;font-size: 15px&quot; color=&quot;#ff00ff&quot;&gt;Save raw data to disk&lt;/font&gt;" style="text;html=1;align=center;verticalAlign=middle;resizable=0;points=[];autosize=1;" vertex="1" parent="jMBi5ZesF6JEzoM__58t-1">
          <mxGeometry x="595" y="190" width="160" height="20" as="geometry" />
        </mxCell>
        <mxCell id="jMBi5ZesF6JEzoM__58t-30" value="" style="shape=cylinder;whiteSpace=wrap;html=1;boundedLbl=1;backgroundOutline=1;" vertex="1" parent="jMBi5ZesF6JEzoM__58t-1">
          <mxGeometry x="750" y="150" width="60" height="80" as="geometry" />
        </mxCell>
        <mxCell id="jMBi5ZesF6JEzoM__58t-33" value="no" style="text;html=1;align=center;verticalAlign=middle;resizable=0;points=[];autosize=1;" vertex="1" parent="jMBi5ZesF6JEzoM__58t-1">
          <mxGeometry x="270" y="330" width="30" height="20" as="geometry" />
        </mxCell>
        <mxCell id="jMBi5ZesF6JEzoM__58t-37" value="yes" style="text;html=1;align=center;verticalAlign=middle;resizable=0;points=[];autosize=1;" vertex="1" parent="jMBi5ZesF6JEzoM__58t-1">
          <mxGeometry x="420" y="400" width="30" height="20" as="geometry" />
        </mxCell>
        <mxCell id="jMBi5ZesF6JEzoM__58t-53" style="edgeStyle=orthogonalEdgeStyle;rounded=1;orthogonalLoop=1;jettySize=auto;html=1;entryX=1;entryY=0.5;entryDx=0;entryDy=0;startArrow=none;startFill=0;strokeColor=#D79B00;" edge="1" parent="jMBi5ZesF6JEzoM__58t-1" source="jMBi5ZesF6JEzoM__58t-50" target="jMBi5ZesF6JEzoM__58t-35">
          <mxGeometry relative="1" as="geometry">
            <Array as="points">
              <mxPoint x="730" y="1110" />
              <mxPoint x="730" y="460" />
            </Array>
          </mxGeometry>
        </mxCell>
        <mxCell id="jMBi5ZesF6JEzoM__58t-50" value="" style="rhombus;whiteSpace=wrap;html=1;" vertex="1" parent="jMBi5ZesF6JEzoM__58t-1">
          <mxGeometry x="380" y="1070" width="80" height="80" as="geometry" />
        </mxCell>
        <mxCell id="jMBi5ZesF6JEzoM__58t-52" value="1 second passed?" style="text;html=1;align=center;verticalAlign=middle;resizable=0;points=[];autosize=1;" vertex="1" parent="jMBi5ZesF6JEzoM__58t-1">
          <mxGeometry x="365.01" y="1030" width="110" height="20" as="geometry" />
        </mxCell>
        <mxCell id="jMBi5ZesF6JEzoM__58t-54" value="&lt;b&gt;No&lt;/b&gt; &lt;br&gt;continue accumulating&amp;nbsp;pre-processed&amp;nbsp; data" style="text;html=1;align=left;verticalAlign=middle;resizable=0;points=[];autosize=1;" vertex="1" parent="jMBi5ZesF6JEzoM__58t-1">
          <mxGeometry x="498" y="1095" width="240" height="30" as="geometry" />
        </mxCell>
        <mxCell id="jMBi5ZesF6JEzoM__58t-57" value="&lt;pre&gt;&lt;pre&gt;&lt;pre style=&quot;font-family: &amp;#34;dejavu sans mono&amp;#34; ; font-size: 11.3pt&quot;&gt;&lt;font color=&quot;#ff00ff&quot;&gt;&lt;font face=&quot;dejavu sans mono&quot; style=&quot;font-size: 12px ; white-space: normal&quot;&gt;&lt;span style=&quot;font-size: 15px ; white-space: pre&quot;&gt;accumulate&lt;/span&gt;&lt;/font&gt; pre-processed data&lt;/font&gt;&lt;/pre&gt;&lt;/pre&gt;&lt;/pre&gt;" style="rounded=1;whiteSpace=wrap;html=1;shadow=1;glass=0;comic=1;" vertex="1" parent="jMBi5ZesF6JEzoM__58t-1">
          <mxGeometry x="-161.25" y="1080" width="451.25" height="60" as="geometry" />
        </mxCell>
      </root>
    </mxGraphModel>
  </diagram>
  <diagram id="XrDNJB3ZeFk41W_LnQyx" name="Pre processor">
    <mxGraphModel dx="1355" dy="725" grid="1" gridSize="10" guides="1" tooltips="1" connect="1" arrows="1" fold="1" page="1" pageScale="1" pageWidth="850" pageHeight="1100" math="0" shadow="0">
      <root>
        <mxCell id="S5bCZHrsvbAGj9eMhZnm-0" />
        <mxCell id="S5bCZHrsvbAGj9eMhZnm-1" parent="S5bCZHrsvbAGj9eMhZnm-0" />
        <mxCell id="S5bCZHrsvbAGj9eMhZnm-2" value="" style="edgeStyle=orthogonalEdgeStyle;rounded=0;orthogonalLoop=1;jettySize=auto;html=1;gradientColor=#ffa500;fillColor=#ffcd28;strokeColor=#d79b00;entryX=0.5;entryY=0;entryDx=0;entryDy=0;" edge="1" parent="S5bCZHrsvbAGj9eMhZnm-1" target="S5bCZHrsvbAGj9eMhZnm-6">
          <mxGeometry relative="1" as="geometry">
            <mxPoint x="482" y="80" as="sourcePoint" />
            <mxPoint x="482" y="210" as="targetPoint" />
            <Array as="points">
              <mxPoint x="482" y="30" />
            </Array>
          </mxGeometry>
        </mxCell>
        <mxCell id="S5bCZHrsvbAGj9eMhZnm-3" value="&lt;font style=&quot;font-size: 15px&quot; color=&quot;#ff00ff&quot;&gt;Raw data&lt;/font&gt;" style="text;html=1;align=center;verticalAlign=middle;resizable=0;points=[];autosize=1;" vertex="1" parent="S5bCZHrsvbAGj9eMhZnm-1">
          <mxGeometry x="442" y="110" width="80" height="20" as="geometry" />
        </mxCell>
        <mxCell id="S5bCZHrsvbAGj9eMhZnm-4" value="" style="edgeStyle=orthogonalEdgeStyle;rounded=1;orthogonalLoop=1;jettySize=auto;html=1;startArrow=none;startFill=0;strokeColor=#D79B00;" edge="1" parent="S5bCZHrsvbAGj9eMhZnm-1" source="S5bCZHrsvbAGj9eMhZnm-6" target="S5bCZHrsvbAGj9eMhZnm-19">
          <mxGeometry relative="1" as="geometry" />
        </mxCell>
        <mxCell id="S5bCZHrsvbAGj9eMhZnm-5" value="" style="edgeStyle=orthogonalEdgeStyle;rounded=1;orthogonalLoop=1;jettySize=auto;html=1;startArrow=none;startFill=0;strokeColor=#D79B00;" edge="1" parent="S5bCZHrsvbAGj9eMhZnm-1" source="S5bCZHrsvbAGj9eMhZnm-6" target="S5bCZHrsvbAGj9eMhZnm-8">
          <mxGeometry relative="1" as="geometry" />
        </mxCell>
        <mxCell id="S5bCZHrsvbAGj9eMhZnm-6" value="&lt;pre style=&quot;font-family: &amp;#34;dejavu sans mono&amp;#34; ; font-size: 15px&quot;&gt;&lt;font color=&quot;#ff00ff&quot;&gt;&lt;span style=&quot;background-color: rgb(255 , 255 , 255)&quot;&gt;warm up time passed?&lt;/span&gt;&lt;/font&gt;&lt;/pre&gt;" style="rounded=1;whiteSpace=wrap;html=1;shadow=1;glass=0;comic=1;" vertex="1" parent="S5bCZHrsvbAGj9eMhZnm-1">
          <mxGeometry x="378.5" y="220" width="207" height="60" as="geometry" />
        </mxCell>
        <mxCell id="S5bCZHrsvbAGj9eMhZnm-7" value="" style="edgeStyle=orthogonalEdgeStyle;rounded=1;orthogonalLoop=1;jettySize=auto;html=1;startArrow=none;startFill=0;strokeColor=#D79B00;" edge="1" parent="S5bCZHrsvbAGj9eMhZnm-1" source="S5bCZHrsvbAGj9eMhZnm-8" target="S5bCZHrsvbAGj9eMhZnm-10">
          <mxGeometry relative="1" as="geometry" />
        </mxCell>
        <mxCell id="S5bCZHrsvbAGj9eMhZnm-8" value="&lt;pre style=&quot;font-family: &amp;#34;dejavu sans mono&amp;#34; ; font-size: 15px&quot;&gt;&lt;pre style=&quot;font-family: &amp;#34;dejavu sans mono&amp;#34; ; font-size: 11.3pt&quot;&gt;&lt;font color=&quot;#ff33ff&quot;&gt;_preprocess_data&lt;/font&gt;&lt;/pre&gt;&lt;/pre&gt;" style="rounded=1;whiteSpace=wrap;html=1;shadow=1;glass=0;comic=1;" vertex="1" parent="S5bCZHrsvbAGj9eMhZnm-1">
          <mxGeometry x="378.5" y="330" width="207" height="60" as="geometry" />
        </mxCell>
        <mxCell id="S5bCZHrsvbAGj9eMhZnm-9" value="" style="edgeStyle=orthogonalEdgeStyle;rounded=1;orthogonalLoop=1;jettySize=auto;html=1;startArrow=none;startFill=0;strokeColor=#D79B00;" edge="1" parent="S5bCZHrsvbAGj9eMhZnm-1" source="S5bCZHrsvbAGj9eMhZnm-10" target="S5bCZHrsvbAGj9eMhZnm-12">
          <mxGeometry relative="1" as="geometry" />
        </mxCell>
        <mxCell id="S5bCZHrsvbAGj9eMhZnm-10" value="&lt;pre style=&quot;font-family: &amp;#34;dejavu sans mono&amp;#34;&quot;&gt;&lt;pre style=&quot;font-family: &amp;#34;dejavu sans mono&amp;#34;&quot;&gt;&lt;pre style=&quot;font-size: 11.3pt ; font-family: &amp;#34;dejavu sans mono&amp;#34;&quot;&gt;&lt;font color=&quot;#ff00ff&quot;&gt;Shift data distribution to be 0-centered.&lt;/font&gt;&lt;/pre&gt;&lt;pre style=&quot;font-family: &amp;#34;dejavu sans mono&amp;#34;&quot;&gt;&lt;font style=&quot;font-size: 10px&quot;&gt;Using accumulated, calculate STD, and subtracted from new raw data&lt;/font&gt;&lt;font color=&quot;#ff00ff&quot; style=&quot;font-size: 11.3pt&quot;&gt;&lt;br&gt;&lt;/font&gt;&lt;/pre&gt;&lt;/pre&gt;&lt;/pre&gt;" style="rounded=1;whiteSpace=wrap;html=1;shadow=1;glass=0;comic=1;" vertex="1" parent="S5bCZHrsvbAGj9eMhZnm-1">
          <mxGeometry x="270.75" y="430" width="422.5" height="60" as="geometry" />
        </mxCell>
        <mxCell id="S5bCZHrsvbAGj9eMhZnm-11" value="" style="edgeStyle=orthogonalEdgeStyle;rounded=1;orthogonalLoop=1;jettySize=auto;html=1;startArrow=none;startFill=0;strokeColor=#D79B00;" edge="1" parent="S5bCZHrsvbAGj9eMhZnm-1" source="S5bCZHrsvbAGj9eMhZnm-12" target="S5bCZHrsvbAGj9eMhZnm-14">
          <mxGeometry relative="1" as="geometry" />
        </mxCell>
        <mxCell id="S5bCZHrsvbAGj9eMhZnm-12" value="&lt;pre&gt;&lt;pre&gt;&lt;pre style=&quot;font-family: &amp;#34;dejavu sans mono&amp;#34; ; font-size: 11.3pt&quot;&gt;&lt;font color=&quot;#ff00ff&quot;&gt;Normalize data&lt;/font&gt;&lt;/pre&gt;&lt;pre&gt;&lt;pre&gt;norm = (data - data.min) / (data.max - data.min)&lt;/pre&gt;&lt;/pre&gt;&lt;/pre&gt;&lt;/pre&gt;" style="rounded=1;whiteSpace=wrap;html=1;shadow=1;glass=0;comic=1;" vertex="1" parent="S5bCZHrsvbAGj9eMhZnm-1">
          <mxGeometry x="256.38" y="570" width="451.25" height="60" as="geometry" />
        </mxCell>
        <mxCell id="S5bCZHrsvbAGj9eMhZnm-13" value="" style="edgeStyle=orthogonalEdgeStyle;rounded=1;orthogonalLoop=1;jettySize=auto;html=1;startArrow=none;startFill=0;strokeColor=#D79B00;" edge="1" parent="S5bCZHrsvbAGj9eMhZnm-1" source="S5bCZHrsvbAGj9eMhZnm-14" target="S5bCZHrsvbAGj9eMhZnm-16">
          <mxGeometry relative="1" as="geometry" />
        </mxCell>
        <mxCell id="S5bCZHrsvbAGj9eMhZnm-14" value="&lt;pre&gt;&lt;pre&gt;&lt;pre style=&quot;font-family: &amp;#34;dejavu sans mono&amp;#34; ; font-size: 11.3pt&quot;&gt;&lt;font color=&quot;#ff00ff&quot;&gt;Smooth data&lt;/font&gt;&lt;/pre&gt;&lt;pre&gt;&lt;pre&gt;&lt;pre&gt;Using sliding window-mean.&lt;/pre&gt;&lt;/pre&gt;&lt;/pre&gt;&lt;/pre&gt;&lt;/pre&gt;" style="rounded=1;whiteSpace=wrap;html=1;shadow=1;glass=0;comic=1;" vertex="1" parent="S5bCZHrsvbAGj9eMhZnm-1">
          <mxGeometry x="256.38" y="710" width="451.25" height="60" as="geometry" />
        </mxCell>
        <mxCell id="S5bCZHrsvbAGj9eMhZnm-28" value="" style="edgeStyle=orthogonalEdgeStyle;rounded=1;orthogonalLoop=1;jettySize=auto;html=1;startArrow=none;startFill=0;strokeColor=#D79B00;" edge="1" parent="S5bCZHrsvbAGj9eMhZnm-1" source="S5bCZHrsvbAGj9eMhZnm-16">
          <mxGeometry relative="1" as="geometry">
            <mxPoint x="482.0050000000001" y="990" as="targetPoint" />
          </mxGeometry>
        </mxCell>
        <mxCell id="S5bCZHrsvbAGj9eMhZnm-16" value="&lt;pre&gt;&lt;pre&gt;&lt;pre style=&quot;font-family: &amp;#34;dejavu sans mono&amp;#34; ; font-size: 11.3pt&quot;&gt;&lt;font color=&quot;#ff00ff&quot;&gt;&lt;font face=&quot;dejavu sans mono&quot; style=&quot;font-size: 12px ; white-space: normal&quot;&gt;&lt;span style=&quot;font-size: 15px ; white-space: pre&quot;&gt;accumulate&lt;/span&gt;&lt;/font&gt; pre-processed data&lt;/font&gt;&lt;/pre&gt;&lt;/pre&gt;&lt;/pre&gt;" style="rounded=1;whiteSpace=wrap;html=1;shadow=1;glass=0;comic=1;" vertex="1" parent="S5bCZHrsvbAGj9eMhZnm-1">
          <mxGeometry x="256.38" y="850" width="451.25" height="60" as="geometry" />
        </mxCell>
        <mxCell id="S5bCZHrsvbAGj9eMhZnm-17" style="edgeStyle=orthogonalEdgeStyle;rounded=1;orthogonalLoop=1;jettySize=auto;html=1;entryX=0.25;entryY=0;entryDx=0;entryDy=0;startArrow=none;startFill=0;strokeColor=#D79B00;" edge="1" parent="S5bCZHrsvbAGj9eMhZnm-1" source="S5bCZHrsvbAGj9eMhZnm-19" target="S5bCZHrsvbAGj9eMhZnm-6">
          <mxGeometry relative="1" as="geometry">
            <Array as="points">
              <mxPoint x="220" y="190" />
              <mxPoint x="430" y="190" />
            </Array>
          </mxGeometry>
        </mxCell>
        <mxCell id="S5bCZHrsvbAGj9eMhZnm-18" style="edgeStyle=orthogonalEdgeStyle;rounded=1;orthogonalLoop=1;jettySize=auto;html=1;entryX=0;entryY=0.5;entryDx=0;entryDy=0;startArrow=none;startFill=0;strokeColor=#D79B00;" edge="1" parent="S5bCZHrsvbAGj9eMhZnm-1" source="S5bCZHrsvbAGj9eMhZnm-19" target="S5bCZHrsvbAGj9eMhZnm-10">
          <mxGeometry relative="1" as="geometry" />
        </mxCell>
        <mxCell id="S5bCZHrsvbAGj9eMhZnm-19" value="&lt;font color=&quot;#ff00ff&quot; face=&quot;dejavu sans mono&quot;&gt;&lt;span style=&quot;font-size: 15px ; white-space: pre&quot;&gt;accumulate&lt;/span&gt;&lt;/font&gt;&lt;pre style=&quot;font-family: &amp;#34;dejavu sans mono&amp;#34; ; font-size: 15px&quot;&gt;&lt;font color=&quot;#ff00ff&quot;&gt;&lt;span style=&quot;background-color: rgb(255 , 255 , 255)&quot;&gt; raw data&lt;/span&gt;&lt;/font&gt;&lt;/pre&gt;" style="rounded=1;whiteSpace=wrap;html=1;shadow=1;glass=0;comic=1;" vertex="1" parent="S5bCZHrsvbAGj9eMhZnm-1">
          <mxGeometry x="142" y="210" width="156.5" height="80" as="geometry" />
        </mxCell>
        <mxCell id="S5bCZHrsvbAGj9eMhZnm-20" value="no" style="text;html=1;align=center;verticalAlign=middle;resizable=0;points=[];autosize=1;" vertex="1" parent="S5bCZHrsvbAGj9eMhZnm-1">
          <mxGeometry x="332" y="230" width="30" height="20" as="geometry" />
        </mxCell>
        <mxCell id="S5bCZHrsvbAGj9eMhZnm-21" value="yes" style="text;html=1;align=center;verticalAlign=middle;resizable=0;points=[];autosize=1;" vertex="1" parent="S5bCZHrsvbAGj9eMhZnm-1">
          <mxGeometry x="482" y="300" width="30" height="20" as="geometry" />
        </mxCell>
        <mxCell id="S5bCZHrsvbAGj9eMhZnm-29" value="&lt;pre style=&quot;font-family: &amp;#34;dejavu sans mono&amp;#34; ; font-size: 11.3pt&quot;&gt;&lt;font color=&quot;#ff00ff&quot;&gt;pre-processed data&lt;/font&gt;&lt;/pre&gt;" style="text;html=1;align=center;verticalAlign=middle;resizable=0;points=[];autosize=1;" vertex="1" parent="S5bCZHrsvbAGj9eMhZnm-1">
          <mxGeometry x="392.01" y="930" width="180" height="50" as="geometry" />
        </mxCell>
      </root>
    </mxGraphModel>
  </diagram>
</mxfile>
